<svg width="63.36" height="73.44" xmlns="http://www.w3.org/2000/svg" data-name="Layer 1">

 <title>Red-hex-source-RGB-02</title>
 <g>
  <title>Layer 1</title>
  <path id="svg_1" fill="#b50000" d="m0.50272,54.46783a3.637,3.637 0 0 0 1.36641,1.35593l27.95279,16.13856l0.00087,-0.00087a3.66793,3.66793 0 0 0 3.71529,0l27.95367,-16.13856a3.66568,3.66568 0 0 0 1.85677,-3.21619l0,-32.27712l-0.00087,-0.00087a3.66685,3.66685 0 0 0 -1.85765,-3.21707l-27.95366,-16.13856l0,-0.00087a3.66313,3.66313 0 0 0 -3.71268,0l0,0.00087l-27.95279,16.13856a3.6653,3.6653 0 0 0 -1.85852,3.21707l-0.00087,0.00087l0,32.27712a3.64426,3.64426 0 0 0 0.49037,1.86113" class="cls-1"/>
  <text transform="matrix(1.85437 0 0 1.69873 -17.2691 -11.091)" stroke="null" font-style="normal" font-weight="bold" xml:space="preserve" text-anchor="start" font-family="'Courier'" font-size="24" stroke-width="0" id="svg_5" y="36.10803" x="18.29687" fill="#ffffff">R</text>
 </g>
</svg>